<svg width="70" height="70" viewBox="0 0 70 70" fill="none" xmlns="http://www.w3.org/2000/svg">
<path d="M61.7349 6.08725H52.1459V3.48312C52.1459 1.56248 50.4957 0 48.4673 0C46.4404 0 44.7917 1.56248 44.7917 3.48312V6.08725H29.0943V3.48312C29.0943 1.56248 27.4442 0 25.4158 0C23.3888 0 21.7401 1.56248 21.7401 3.48312V6.08725H12.1526C9.31136 6.08725 7 8.27582 7 10.9661V57.4769C7 60.1672 9.31136 62.3557 12.1526 62.3557H21.5149C22.1458 63.2183 22.8648 64.0385 23.6761 64.8068C27.3345 68.2694 32.1405 70 36.9437 70C41.7483 70 46.553 68.268 50.2099 64.8068C51.014 64.0453 51.7358 63.2251 52.3711 62.3557H61.7363C64.5775 62.3557 66.8889 60.1672 66.8889 57.4769V10.9661C66.8874 8.27582 64.5761 6.08725 61.7349 6.08725ZM47.1016 3.48312C47.1016 2.76681 47.7151 2.18447 48.4688 2.18447C49.2253 2.18447 49.8403 2.76681 49.8403 3.48312V10.88C49.8403 11.5935 49.2253 12.1745 48.4688 12.1745C47.7151 12.1745 47.1016 11.5935 47.1016 10.88V3.48312ZM24.0486 3.48312C24.0486 2.76681 24.6622 2.18447 25.4158 2.18447C26.1723 2.18447 26.7873 2.76681 26.7873 3.48312V10.88C26.7873 11.5935 26.1723 12.1745 25.4158 12.1745C24.6622 12.1745 24.0486 11.5935 24.0486 10.88V3.48312ZM12.1526 8.27309H21.7416V10.88C21.7416 12.7992 23.3903 14.3603 25.4172 14.3603C27.4456 14.3603 29.0958 12.7992 29.0958 10.88V8.27309H44.7945V10.88C44.7945 12.7992 46.4432 14.3603 48.4702 14.3603C50.4986 14.3603 52.1487 12.7992 52.1487 10.88V8.27309H61.7378C63.3056 8.27309 64.5819 9.48152 64.5819 10.9661V18.2631H9.30847V10.9661C9.30847 9.48015 10.5833 8.27309 12.1526 8.27309ZM48.577 63.2607C45.3691 66.2982 41.1564 67.8155 36.9437 67.8155C32.731 67.8155 28.5154 66.2968 25.3075 63.2607C24.4861 62.4815 23.77 61.6408 23.1579 60.7522C23.129 60.7003 23.0958 60.6524 23.0582 60.606C19.0101 54.5802 19.7594 46.478 25.3061 41.226C28.4014 38.2952 32.5332 36.6807 36.9423 36.6807C41.3513 36.6807 45.4817 38.2952 48.5756 41.226C51.6709 44.1555 53.3759 48.0665 53.3759 52.2413C53.3759 55.2637 52.4822 58.1495 50.8133 60.6237C50.7917 60.6525 50.77 60.6825 50.7512 60.714C50.1305 61.6244 49.4043 62.4774 48.577 63.2607ZM61.7349 60.1699H53.7339C55.0087 57.7421 55.6829 55.0436 55.6829 52.2427C55.6829 47.4841 53.7382 43.0236 50.207 39.6827C46.6771 36.339 41.9663 34.4976 36.9408 34.4976C31.9153 34.4976 27.2031 36.339 23.6718 39.6827C17.8292 45.2149 16.654 53.5208 20.1477 60.1713H12.1497C10.5818 60.1713 9.30558 58.9628 9.30558 57.4783V20.4476H64.5775V57.4769C64.579 58.9615 63.3042 60.1699 61.7349 60.1699ZM49.0823 52.2413C49.0823 52.8455 48.5655 53.3335 47.9288 53.3335H36.9437C36.3056 53.3335 35.7902 52.8441 35.7902 52.2413V41.8412C35.7902 41.2369 36.3071 40.7489 36.9437 40.7489C37.5804 40.7489 38.0972 41.2383 38.0972 41.8412V51.1491H47.9274C48.5655 51.1491 49.0823 51.6385 49.0823 52.2413Z" fill="#002B45"/>
</svg>
