<svg width="70" height="61" viewBox="0 0 70 61" fill="none" xmlns="http://www.w3.org/2000/svg">
<g clip-path="url(#clip0_0_738)">
<path d="M68.4508 60.9936H6.90217C6.47283 60.9936 6.12439 60.6451 6.12439 60.2158C6.12439 59.7865 6.47283 59.438 6.90217 59.438H67.6731V8.54335H12.2533C11.8239 8.54335 11.4755 8.1949 11.4755 7.76557C11.4755 7.33624 11.8239 6.98779 12.2533 6.98779H68.4508C68.8802 6.98779 69.2286 7.33624 69.2286 7.76557V60.2158C69.2286 60.6451 68.8802 60.9936 68.4508 60.9936Z" fill="#002B45"/>
<path d="M12.2533 55.6423C11.824 55.6423 11.4755 55.2939 11.4755 54.8645V5.80232C11.4755 3.28076 9.42373 1.22743 6.90062 1.22743C4.37751 1.22743 2.32728 3.28076 2.32728 5.80232V54.8645C2.32728 55.2939 1.97884 55.6423 1.54951 55.6423C1.12017 55.6423 0.771729 55.2939 0.771729 54.8645V5.80232C0.771729 2.4221 3.52195 -0.328125 6.90217 -0.328125C10.2824 -0.328125 13.0326 2.4221 13.0326 5.80232V54.8645C13.0311 55.2939 12.6826 55.6423 12.2533 55.6423Z" fill="#002B45"/>
<path d="M6.90217 60.9933C3.52195 60.9933 0.771729 58.2431 0.771729 54.8629C0.771729 51.4826 3.52195 48.7324 6.90217 48.7324C10.2824 48.7324 13.0326 51.4826 13.0326 54.8629C13.0326 55.2922 12.6842 55.6406 12.2548 55.6406C11.8255 55.6406 11.4771 55.2922 11.4771 54.8629C11.4771 52.3413 9.42529 50.288 6.90217 50.288C4.37906 50.288 2.32728 52.3398 2.32728 54.8629C2.32728 57.386 4.37906 59.4378 6.90217 59.4378C7.33151 59.4378 7.67995 59.7862 7.67995 60.2155C7.67995 60.6449 7.33151 60.9933 6.90217 60.9933Z" fill="#002B45"/>
<path d="M63.6019 48.5318H17.1032C16.6739 48.5318 16.3254 48.1833 16.3254 47.754V38.0053C16.3254 37.576 16.6739 37.2275 17.1032 37.2275H63.6019C64.0312 37.2275 64.3797 37.576 64.3797 38.0053V47.754C64.3797 48.1849 64.0312 48.5318 63.6019 48.5318ZM17.881 46.9762H62.8241V38.7831H17.881V46.9762Z" fill="#002B45"/>
<path d="M58.5632 48.5317C58.1338 48.5317 57.7854 48.1833 57.7854 47.7539V43.0468C57.7854 42.6175 58.1338 42.269 58.5632 42.269C58.9925 42.269 59.341 42.6175 59.341 43.0468V47.7539C59.341 48.1848 58.9925 48.5317 58.5632 48.5317Z" fill="#002B45"/>
<path d="M52.4921 48.5317C52.0628 48.5317 51.7144 48.1832 51.7144 47.7539V45.4003C51.7144 44.971 52.0628 44.6226 52.4921 44.6226C52.9215 44.6226 53.2699 44.971 53.2699 45.4003V47.7539C53.2699 48.1848 52.923 48.5317 52.4921 48.5317Z" fill="#002B45"/>
<path d="M46.4226 48.5317C45.9932 48.5317 45.6448 48.1833 45.6448 47.7539V43.0468C45.6448 42.6175 45.9932 42.269 46.4226 42.269C46.8519 42.269 47.2003 42.6175 47.2003 43.0468V47.7539C47.2003 48.1848 46.8519 48.5317 46.4226 48.5317Z" fill="#002B45"/>
<path d="M40.3522 48.5317C39.9229 48.5317 39.5745 48.1832 39.5745 47.7539V45.4003C39.5745 44.971 39.9229 44.6226 40.3522 44.6226C40.7816 44.6226 41.13 44.971 41.13 45.4003V47.7539C41.13 48.1848 40.7816 48.5317 40.3522 48.5317Z" fill="#002B45"/>
<path d="M34.281 48.5317C33.8516 48.5317 33.5032 48.1833 33.5032 47.7539V43.0468C33.5032 42.6175 33.8516 42.269 34.281 42.269C34.7103 42.269 35.0587 42.6175 35.0587 43.0468V47.7539C35.0587 48.1848 34.7103 48.5317 34.281 48.5317Z" fill="#002B45"/>
<path d="M28.2114 48.5317C27.7821 48.5317 27.4337 48.1832 27.4337 47.7539V45.4003C27.4337 44.971 27.7821 44.6226 28.2114 44.6226C28.6408 44.6226 28.9892 44.971 28.9892 45.4003V47.7539C28.9892 48.1848 28.6408 48.5317 28.2114 48.5317Z" fill="#002B45"/>
<path d="M22.1394 48.5317C21.71 48.5317 21.3616 48.1833 21.3616 47.7539V43.0468C21.3616 42.6175 21.71 42.269 22.1394 42.269C22.5687 42.269 22.9171 42.6175 22.9171 43.0468V47.7539C22.9171 48.1848 22.5702 48.5317 22.1394 48.5317Z" fill="#002B45"/>
<path d="M57.368 31.4472C57.354 31.4472 57.3385 31.4472 57.3245 31.4472C56.5094 31.4363 55.7471 31.1081 55.1778 30.5232C54.6427 29.9726 54.3425 29.2508 54.316 28.5072H26.3891C26.3611 29.2523 26.0625 29.9726 25.5274 30.5232C24.9596 31.1081 24.1974 31.4363 23.3822 31.4472C22.5656 31.4581 21.7956 31.1517 21.2107 30.5839L18.3174 27.7808C17.6407 27.2083 17.2518 26.3637 17.2502 25.4599C17.2487 24.5515 17.636 23.7021 18.3142 23.1219L21.2122 20.3141C22.4178 19.1412 24.3545 19.1677 25.5274 20.3748C26.0625 20.9255 26.3627 21.6472 26.3891 22.3908H54.316C54.344 21.6457 54.6427 20.9255 55.1778 20.3748C56.3522 19.1677 58.2874 19.1412 59.4945 20.3157L62.3909 23.1219C63.0334 23.6679 63.3989 24.3741 63.4502 25.1643C63.5063 26.0463 63.1485 26.9735 62.4702 27.7061C62.4485 27.7295 62.4267 27.7512 62.4018 27.7715L62.3894 27.7823L59.4929 30.5886C58.922 31.1408 58.1676 31.4472 57.368 31.4472ZM25.5149 26.9517H55.1918C55.4376 26.9517 55.6709 27.0683 55.8171 27.2659C55.9634 27.4635 56.0085 27.7201 55.9369 27.955C55.7783 28.4777 55.9151 29.0455 56.2947 29.4375C56.5731 29.7237 56.948 29.8855 57.3478 29.8901C57.7554 29.8963 58.1256 29.7455 58.4118 29.467L61.3285 26.6406C61.3394 26.6312 61.3503 26.6203 61.3596 26.611C61.7314 26.1957 61.9274 25.7057 61.8994 25.2577C61.876 24.889 61.6987 24.5639 61.372 24.2917C61.358 24.2792 61.3425 24.2668 61.33 24.2543L58.4134 21.4279C57.8207 20.8508 56.8703 20.8648 56.2947 21.4559C55.9136 21.8479 55.7767 22.4157 55.9369 22.9383C56.0085 23.1748 55.9649 23.4299 55.8171 23.6275C55.6709 23.825 55.4391 23.9417 55.1918 23.9417H25.5149C25.2691 23.9417 25.0374 23.825 24.8896 23.6275C24.7418 23.4299 24.6983 23.1732 24.7714 22.9383C24.93 22.4157 24.7931 21.8479 24.4136 21.4559C23.838 20.8648 22.8891 20.8508 22.2965 21.4263L19.3782 24.2528C19.3642 24.2668 19.3502 24.2792 19.3362 24.2901C18.9987 24.5732 18.8058 24.9963 18.8058 25.4506C18.8074 25.9032 19.0002 26.3217 19.3347 26.5986C19.3502 26.611 19.3658 26.625 19.3798 26.639L22.2949 29.4639C22.8876 30.041 23.838 30.027 24.4136 29.4359C24.7947 29.0439 24.9316 28.4761 24.7714 27.9535C24.6998 27.717 24.7434 27.4619 24.8896 27.2643C25.0358 27.0668 25.2676 26.9517 25.5149 26.9517Z" fill="#002B45"/>
</g>
<defs>
<clipPath id="clip0_0_738">
<rect width="70" height="60.6667" fill="white"/>
</clipPath>
</defs>
</svg>
