<svg width="70" height="70" viewBox="0 0 70 70" fill="none" xmlns="http://www.w3.org/2000/svg">
<path d="M64.8318 36.7349H4.75879C3.81635 36.7359 2.91281 37.1108 2.2464 37.7772C1.58 38.4436 1.20515 39.3471 1.2041 40.2896V64.0809C1.20515 65.0234 1.58 65.9269 2.2464 66.5933C2.91281 67.2597 3.81635 67.6346 4.75879 67.6356H64.8318C65.7742 67.6346 66.6778 67.2597 67.3442 66.5933C68.0106 65.9269 68.3854 65.0234 68.3865 64.0809V40.2896C68.3854 39.3471 68.0106 38.4436 67.3442 37.7772C66.6778 37.1108 65.7742 36.7359 64.8318 36.7349ZM45.1655 52.7795H24.7762V45.8068H45.1655V52.7795ZM24.7762 54.4201H45.1655V65.995H24.7762V54.4201ZM45.1655 44.1662H24.7762V38.3755H45.1655V44.1662ZM2.84473 64.0809V40.2896C2.84531 39.7821 3.04715 39.2956 3.40598 38.9367C3.76481 38.5779 4.25133 38.3761 4.75879 38.3755H23.1356V65.995H4.75879C4.25131 65.9945 3.76478 65.7926 3.40594 65.4338C3.0471 65.0749 2.84527 64.5884 2.84473 64.0809ZM66.7456 64.0809C66.745 64.5884 66.5432 65.0749 66.1844 65.4338C65.8255 65.7926 65.339 65.9945 64.8315 65.995H46.8061V38.3755H64.8318C65.3392 38.3761 65.8258 38.5779 66.1846 38.9367C66.5434 39.2956 66.7453 39.7821 66.7458 40.2896L66.7456 64.0809Z" fill="#002B45"/>
<path d="M45.9856 19.8046H67.1176C67.4076 19.8043 67.6857 19.689 67.8907 19.4839C68.0958 19.2788 68.2111 19.0008 68.2114 18.7108V3.27637C68.2111 2.98639 68.0957 2.70838 67.8907 2.50333C67.6856 2.29828 67.4076 2.18294 67.1176 2.18262H2.12305C1.83307 2.18294 1.55506 2.29828 1.35001 2.50333C1.14496 2.70838 1.02962 2.98639 1.0293 3.27637V18.7108C1.02962 19.0008 1.14496 19.2788 1.35001 19.4839C1.55506 19.6889 1.83307 19.8042 2.12305 19.8046H23.2554C23.473 19.8046 23.6816 19.7181 23.8354 19.5643C23.9893 19.4105 24.0757 19.2018 24.0757 18.9843V14.5483H29.2135V18.8283L26.6825 25.2654C26.6174 25.4312 26.5937 25.6105 26.6136 25.7875C26.6335 25.9646 26.6963 26.1341 26.7966 26.2813C26.897 26.4286 27.0317 26.5491 27.1892 26.6323C27.3468 26.7156 27.5222 26.7592 27.7004 26.7592H41.6167C41.7949 26.7592 41.9704 26.7157 42.128 26.6324C42.2855 26.5491 42.4203 26.4286 42.5207 26.2813C42.621 26.1341 42.6839 25.9645 42.7037 25.7874C42.7236 25.6104 42.6999 25.4311 42.6347 25.2653L40.1039 18.8279V14.5483H45.1651V18.9843C45.1651 19.092 45.1863 19.1987 45.2276 19.2982C45.2688 19.3977 45.3292 19.4882 45.4054 19.5644C45.4816 19.6405 45.5721 19.701 45.6716 19.7422C45.7711 19.7834 45.8778 19.8046 45.9856 19.8046ZM66.5708 18.1639H46.8059V3.82324H66.5708V18.1639ZM2.66992 3.82324H22.4351V18.1639H2.66992V3.82324ZM28.5031 25.119L30.5925 19.804H38.7248L40.8143 25.119H28.5031ZM38.4634 18.1634H30.8538V14.5483H38.4634V18.1634ZM24.0757 12.9077V3.82324H45.1653V12.9077H24.0757Z" fill="#002B45"/>
<path d="M19.3007 40.0161H7.81152C7.59396 40.0161 7.38531 40.1025 7.23147 40.2564C7.07764 40.4102 6.99121 40.6189 6.99121 40.8364C6.99121 41.054 7.07764 41.2626 7.23147 41.4165C7.38531 41.5703 7.59396 41.6567 7.81152 41.6567H19.3007C19.5182 41.6567 19.7269 41.5703 19.8807 41.4165C20.0346 41.2626 20.121 41.054 20.121 40.8364C20.121 40.6189 20.0346 40.4102 19.8807 40.2564C19.7269 40.1025 19.5182 40.0161 19.3007 40.0161Z" fill="#002B45"/>
<path d="M62.8704 40.0161H51.3811C51.1635 40.0161 50.9549 40.1025 50.8011 40.2564C50.6472 40.4102 50.5608 40.6189 50.5608 40.8364C50.5608 41.054 50.6472 41.2626 50.8011 41.4165C50.9549 41.5703 51.1635 41.6567 51.3811 41.6567H62.8704C63.088 41.6567 63.2966 41.5703 63.4504 41.4165C63.6043 41.2626 63.6907 41.054 63.6907 40.8364C63.6907 40.6189 63.6043 40.4102 63.4504 40.2564C63.2966 40.1025 63.088 40.0161 62.8704 40.0161Z" fill="#002B45"/>
<path d="M16.3425 15.126H8.92773C8.71017 15.126 8.50152 15.2124 8.34769 15.3662C8.19385 15.5201 8.10742 15.7287 8.10742 15.9463C8.10742 16.1638 8.19385 16.3725 8.34769 16.5263C8.50152 16.6802 8.71017 16.7666 8.92773 16.7666H16.3423C16.5598 16.7666 16.7685 16.6802 16.9223 16.5263C17.0762 16.3725 17.1626 16.1638 17.1626 15.9463C17.1626 15.7287 17.0762 15.5201 16.9223 15.3662C16.7685 15.2124 16.5598 15.126 16.3423 15.126H16.3425Z" fill="#002B45"/>
<path d="M53.7775 16.7666H61.1921C61.4097 16.7666 61.6183 16.6802 61.7722 16.5263C61.926 16.3725 62.0124 16.1638 62.0124 15.9463C62.0124 15.7287 61.926 15.5201 61.7722 15.3662C61.6183 15.2124 61.4097 15.126 61.1921 15.126H53.7775C53.5599 15.126 53.3513 15.2124 53.1974 15.3662C53.0436 15.5201 52.9572 15.7287 52.9572 15.9463C52.9572 16.1638 53.0436 16.3725 53.1974 16.5263C53.3513 16.6802 53.5599 16.7666 53.7775 16.7666Z" fill="#002B45"/>
</svg>
